G04 Layer: TopLayer*
G04 EasyEDA v6.5.50, 2025-04-27 19:14:41*
G04 8f609174539e42ba90f1ac761e70afa3,18bc881710ba4a7b8fe44c00a582f47b,10*
G04 Gerber Generator version 0.2*
G04 Scale: 100 percent, Rotated: No, Reflected: No *
G04 Dimensions in millimeters *
G04 leading zeros omitted , absolute positions ,4 integer and 5 decimal *
%FSLAX45Y45*%
%MOMM*%

%AMMACRO1*21,1,$1,$2,0,0,$3*%
%ADD10C,0.2540*%
%ADD11C,0.3000*%
%ADD12R,0.8000X0.9000*%
%ADD13MACRO1,1X1.3995X0.0000*%
%ADD14R,1.0000X1.3995*%
%ADD15MACRO1,0.864X0.8065X90.0000*%
%ADD16R,0.2200X0.4000*%
%ADD17R,0.4000X0.2200*%
%ADD18R,0.4000X0.2800*%
%ADD19C,0.8080*%
%ADD20R,0.7501X0.3000*%
%ADD21C,0.6096*%
%ADD22C,0.0126*%

%LPD*%
D10*
X1464541Y1582699D02*
G01*
X1464541Y1606448D01*
X1396850Y1674139D01*
X986690Y1674139D01*
X962814Y1650263D01*
X962814Y1650263D02*
G01*
X850953Y1762125D01*
X826772Y1762125D01*
X758090Y1562100D02*
G01*
X667717Y1652473D01*
X14226Y1652473D01*
X-101419Y1536827D01*
X826366Y1562100D02*
G01*
X758090Y1562100D01*
X-179397Y1536827D02*
G01*
X-101419Y1536827D01*
X-311477Y1536827D02*
G01*
X-311477Y1497837D01*
X-252397Y1438757D01*
X132869Y1438757D01*
X256212Y1562100D01*
X-389455Y1536827D02*
G01*
X-311477Y1536827D01*
X324182Y1562100D02*
G01*
X290197Y1562100D01*
X290197Y1562100D02*
G01*
X256212Y1562100D01*
X1344551Y1532712D02*
G01*
X1335763Y1523923D01*
X1075057Y1523923D01*
X1040132Y1488998D01*
X363298Y1488998D01*
X290197Y1562100D01*
X1464541Y1532712D02*
G01*
X1464541Y1582699D01*
X620118Y1555470D02*
G01*
X538787Y1555470D01*
X532157Y1562100D01*
X464187Y1562100D02*
G01*
X532157Y1562100D01*
X962814Y1650263D02*
G01*
X962814Y1576323D01*
X977038Y1562100D01*
X2959102Y1854200D02*
G01*
X2918106Y1854200D01*
X2901596Y1870710D01*
X2901596Y3920693D01*
X2901698Y3923156D01*
X2902003Y3925620D01*
X2902511Y3928033D01*
X2903197Y3930395D01*
X2904086Y3932681D01*
X2905178Y3934917D01*
X2906422Y3937025D01*
X2907870Y3939031D01*
X2909445Y3940937D01*
X2911198Y3942689D01*
X2913052Y3944289D01*
X2915058Y3945737D01*
X2917167Y3947007D01*
X2919402Y3948099D01*
X2921688Y3949014D01*
X2924050Y3949725D01*
X2926463Y3950258D01*
X2928901Y3950563D01*
X2931365Y3950690D01*
X2931594Y3950690D01*
X1344551Y1582699D02*
G01*
X1276047Y1582699D01*
D11*
X4921605Y-339293D02*
G01*
X4921605Y3920693D01*
X4981600Y-339293D02*
G01*
X4981600Y3920693D01*
X5041595Y-339293D02*
G01*
X5041595Y3920693D01*
X5101590Y-339293D02*
G01*
X5101590Y3920693D01*
X5161584Y-339293D02*
G01*
X5161584Y3920693D01*
X2931591Y-369290D02*
G01*
X4891608Y-369290D01*
X2931591Y-429285D02*
G01*
X4891608Y-429285D01*
X2931591Y-489305D02*
G01*
X4891608Y-489305D01*
X2931591Y-549300D02*
G01*
X4891608Y-549300D01*
X2931591Y-609295D02*
G01*
X4891608Y-609295D01*
X2931591Y3950690D02*
G01*
X4891608Y3950690D01*
X2931591Y4010685D02*
G01*
X4891608Y4010685D01*
X2931591Y4070705D02*
G01*
X4891608Y4070705D01*
X2931591Y4130700D02*
G01*
X4891608Y4130700D01*
X2931591Y4190695D02*
G01*
X4891608Y4190695D01*
X2901594Y-339293D02*
G01*
X2901594Y1790700D01*
X2841599Y1850694D01*
X2841599Y3920693D01*
X2781604Y-339293D02*
G01*
X2781604Y1750695D01*
X2721609Y1810689D01*
X2721609Y3920693D01*
X2841599Y-339293D02*
G01*
X2841599Y1770710D01*
X2781604Y1830704D01*
X2781604Y3920693D01*
X2721609Y-339293D02*
G01*
X2721609Y1730705D01*
X2661589Y1790700D01*
X2661589Y3920693D01*
X2901594Y3920693D02*
G01*
X2901594Y1870710D01*
X2918104Y1854200D01*
X2959100Y1854200D01*
X2565400Y1727200D02*
G01*
X2578100Y1727200D01*
X2645105Y1727200D01*
X2661589Y1710689D01*
X2661589Y-339293D01*
D12*
G01*
X464185Y1562100D03*
G01*
X324180Y1562100D03*
D13*
G01*
X-389460Y1536827D03*
D14*
G01*
X-179400Y1536827D03*
D15*
G01*
X977024Y1562100D03*
G01*
X826375Y1562100D03*
D16*
G01*
X1404543Y1592706D03*
D17*
G01*
X1464538Y1582699D03*
G01*
X1464538Y1532712D03*
G01*
X1464538Y1482699D03*
D16*
G01*
X1404543Y1472717D03*
D17*
G01*
X1344548Y1482725D03*
G01*
X1344548Y1532712D03*
D18*
G01*
X1344548Y1582699D03*
D11*
G75*
G01*
X2901594Y3920693D02*
G02*
X2931592Y3950691I29998J0D01*
G75*
G01*
X2841600Y3920693D02*
G02*
X2931592Y4010685I89992J0D01*
G75*
G01*
X2781605Y3920693D02*
G02*
X2931592Y4070706I149987J26D01*
G75*
G01*
X2721610Y3920693D02*
G02*
X2931592Y4130700I210007J0D01*
G75*
G01*
X2661590Y3920693D02*
G02*
X2931592Y4190695I270002J0D01*
G75*
G01*
X2901594Y-339293D02*
G03*
X2931592Y-369291I29998J0D01*
G75*
G01*
X2841600Y-339293D02*
G03*
X2931592Y-429285I89992J0D01*
G75*
G01*
X2781605Y-339293D02*
G03*
X2931592Y-489306I149987J-26D01*
G75*
G01*
X2721610Y-339293D02*
G03*
X2931592Y-549300I210007J0D01*
G75*
G01*
X2661590Y-339293D02*
G03*
X2931592Y-609295I270002J0D01*
G75*
G01*
X4921606Y-339293D02*
G02*
X4891608Y-369291I-29998J0D01*
G75*
G01*
X4981600Y-339293D02*
G02*
X4891608Y-429285I-89992J0D01*
G75*
G01*
X5041595Y-339293D02*
G02*
X4891608Y-489306I-149987J-26D01*
G75*
G01*
X5101590Y-339293D02*
G02*
X4891608Y-549300I-210007J0D01*
G75*
G01*
X5161610Y-339293D02*
G02*
X4891608Y-609295I-270002J0D01*
G75*
G01*
X4921606Y3920693D02*
G03*
X4891608Y3950691I-29998J0D01*
G75*
G01*
X4981600Y3920693D02*
G03*
X4891608Y4010685I-89992J0D01*
G75*
G01*
X5041595Y3920693D02*
G03*
X4891608Y4070706I-149987J26D01*
G75*
G01*
X5101590Y3920693D02*
G03*
X4891608Y4130700I-210007J0D01*
G75*
G01*
X5161610Y3920693D02*
G03*
X4891608Y4190695I-270002J0D01*
D19*
G01*
X2959100Y1854200D03*
D20*
G01*
X2578100Y1727200D03*
D21*
G01*
X1276045Y1582699D03*
G01*
X620115Y1555470D03*
G01*
X826770Y1762125D03*
M02*
